<svg width="1886" height="970" viewBox="0 0 1886 970" fill="none" xmlns="http://www.w3.org/2000/svg">
<line x1="1866" y1="951" x2="1866" y2="582" stroke="url(#paint0_linear_610_3524)" stroke-width="2"/>
<path d="M1836.74 899.228C1835.35 899.845 1833.85 900.262 1832.28 900.45C1833.9 899.48 1835.11 897.952 1835.69 896.153C1834.17 897.058 1832.5 897.695 1830.76 898.037C1829.59 896.788 1828.04 895.961 1826.36 895.682C1824.67 895.404 1822.94 895.691 1821.43 896.499C1819.92 897.306 1818.72 898.589 1818.02 900.148C1817.31 901.707 1817.14 903.455 1817.53 905.12C1814.45 904.965 1811.43 904.163 1808.67 902.765C1805.91 901.367 1803.48 899.405 1801.53 897.007C1800.86 898.157 1800.48 899.49 1800.48 900.91C1800.48 902.188 1800.79 903.447 1801.4 904.575C1802 905.702 1802.87 906.663 1803.93 907.373C1802.7 907.334 1801.49 907.001 1800.42 906.402V906.502C1800.42 908.295 1801.04 910.032 1802.17 911.42C1803.31 912.808 1804.89 913.76 1806.64 914.115C1805.5 914.424 1804.3 914.47 1803.14 914.248C1803.63 915.791 1804.6 917.14 1805.9 918.107C1807.2 919.073 1808.77 919.609 1810.39 919.638C1807.64 921.797 1804.24 922.968 1800.75 922.963C1800.13 922.963 1799.51 922.927 1798.89 922.855C1802.44 925.137 1806.58 926.348 1810.79 926.343C1825.08 926.343 1832.89 914.513 1832.89 904.253C1832.89 903.92 1832.88 903.583 1832.86 903.25C1834.38 902.152 1835.69 900.791 1836.73 899.233L1836.74 899.228Z" fill="white"/>
<g clip-path="url(#clip0_610_3524)">
<path d="M1810.92 835V816.231H1806V809.473H1810.92V803.701C1810.92 799.165 1813.82 795 1820.51 795C1823.22 795 1825.23 795.262 1825.23 795.262L1825.07 801.573C1825.07 801.573 1823.02 801.553 1820.79 801.553C1818.38 801.553 1817.99 802.675 1817.99 804.539V809.473H1825.26L1824.94 816.231H1817.99V835H1810.92Z" fill="white"/>
</g>
<path d="M1817 713.793C1814.13 713.793 1811.79 716.133 1811.79 719C1811.79 721.867 1814.13 724.207 1817 724.207C1819.87 724.207 1822.21 721.867 1822.21 719C1822.21 716.133 1819.87 713.793 1817 713.793ZM1832.62 719C1832.62 716.844 1832.64 714.707 1832.52 712.555C1832.4 710.055 1831.83 707.836 1830 706.008C1828.17 704.176 1825.95 703.61 1823.45 703.488C1821.29 703.367 1819.16 703.387 1817.01 703.387C1814.85 703.387 1812.71 703.367 1810.56 703.488C1808.06 703.61 1805.84 704.18 1804.01 706.008C1802.18 707.84 1801.61 710.055 1801.49 712.555C1801.37 714.711 1801.39 716.848 1801.39 719C1801.39 721.153 1801.37 723.293 1801.49 725.445C1801.61 727.945 1802.18 730.164 1804.01 731.992C1805.84 733.824 1808.06 734.391 1810.56 734.512C1812.72 734.633 1814.85 734.613 1817.01 734.613C1819.16 734.613 1821.3 734.633 1823.45 734.512C1825.95 734.391 1828.17 733.82 1830 731.992C1831.83 730.16 1832.4 727.945 1832.52 725.445C1832.64 723.293 1832.62 721.156 1832.62 719ZM1817 727.012C1812.57 727.012 1808.99 723.434 1808.99 719C1808.99 714.567 1812.57 710.988 1817 710.988C1821.43 710.988 1825.01 714.567 1825.01 719C1825.01 723.434 1821.43 727.012 1817 727.012ZM1825.34 712.531C1824.31 712.531 1823.47 711.695 1823.47 710.66C1823.47 709.625 1824.31 708.789 1825.34 708.789C1826.38 708.789 1827.21 709.625 1827.21 710.66C1827.21 710.906 1827.16 711.15 1827.07 711.377C1826.98 711.604 1826.84 711.81 1826.66 711.984C1826.49 712.158 1826.28 712.296 1826.06 712.39C1825.83 712.484 1825.59 712.532 1825.34 712.531Z" fill="white"/>
<g clip-path="url(#clip1_610_3524)">
<path d="M1838.17 613.845C1837.94 613.037 1837.5 612.305 1836.89 611.728C1836.26 611.133 1835.5 610.708 1834.66 610.491C1831.53 609.666 1818.99 609.666 1818.99 609.666C1813.76 609.607 1808.54 609.869 1803.34 610.45C1802.5 610.682 1801.74 611.117 1801.11 611.716C1800.49 612.31 1800.05 613.041 1799.81 613.843C1799.25 616.863 1798.98 619.929 1799 623C1798.98 626.068 1799.25 629.133 1799.81 632.156C1800.04 632.955 1800.49 633.683 1801.11 634.271C1801.72 634.86 1802.49 635.285 1803.34 635.51C1806.51 636.333 1818.99 636.333 1818.99 636.333C1824.23 636.393 1829.46 636.131 1834.66 635.55C1835.5 635.334 1836.26 634.908 1836.89 634.313C1837.5 633.736 1837.94 633.004 1838.17 632.196C1838.74 629.178 1839.02 626.111 1839 623.038C1839.04 619.952 1838.76 616.871 1838.17 613.843V613.845ZM1815 628.706V617.295L1825.44 623.001L1815 628.706Z" fill="white"/>
</g>
<path opacity="0.4" d="M987.129 836.69C1244.27 836.69 1452.72 754.351 1452.72 652.78C1452.72 551.209 1244.27 468.87 987.129 468.87C729.989 468.87 521.535 551.209 521.535 652.78C521.535 754.351 729.989 836.69 987.129 836.69Z" fill="#0F054C"/>
<path d="M987.129 762.88C1244.27 762.88 1452.72 680.541 1452.72 578.97C1452.72 477.399 1244.27 395.06 987.129 395.06C729.989 395.06 521.535 477.399 521.535 578.97C521.535 680.541 729.989 762.88 987.129 762.88Z" fill="url(#paint1_linear_610_3524)"/>
<path opacity="0.48" d="M1452.72 518.414H1441.26C1422.52 485.636 1380.91 454.517 1316.34 429.002C1134.54 357.175 839.72 357.175 658.044 429.002C597.096 453.095 556.622 482.188 536.527 512.94H521.912V553.713C518.29 602.568 563.646 651.896 658.075 689.2C839.909 761.027 1134.69 761.027 1316.53 689.2C1407.24 653.211 1452.72 606.059 1452.72 558.993V518.414Z" fill="url(#paint2_linear_610_3524)"/>
<path opacity="0.48" d="M1452.72 518.414H1441.26C1422.52 485.636 1380.91 454.517 1316.34 429.002C1134.54 357.175 839.72 357.175 658.044 429.002C597.096 453.095 556.622 482.188 536.527 512.94H521.912V553.713C518.29 602.568 563.646 651.896 658.075 689.2C839.909 761.027 1134.69 761.027 1316.53 689.2C1407.24 653.211 1452.72 606.059 1452.72 558.993V518.414Z" fill="url(#paint3_linear_610_3524)"/>
<path opacity="0.48" d="M1452.72 518.414H1441.26C1422.52 485.636 1380.91 454.517 1316.34 429.002C1134.54 357.175 839.72 357.175 658.044 429.002C597.096 453.095 556.622 482.188 536.527 512.94H521.912V553.713C518.29 602.568 563.646 651.896 658.075 689.2C839.909 761.027 1134.69 761.027 1316.53 689.2C1407.24 653.211 1452.72 606.059 1452.72 558.993V518.414Z" fill="url(#paint4_linear_610_3524)"/>
<path d="M1452.72 502.639H1441.26C1422.52 469.883 1380.91 438.743 1316.34 413.249C1134.54 341.422 839.72 341.422 658.044 413.249C597.096 437.32 556.622 466.435 536.527 497.166H521.912V537.96C518.29 586.815 563.646 636.143 658.075 673.425C839.909 745.252 1134.69 745.252 1316.53 673.425C1407.43 637.523 1452.88 590.457 1452.88 543.391L1452.72 502.639Z" fill="url(#paint5_linear_610_3524)"/>
<path opacity="0.48" d="M1441.26 502.575C1440.59 501.432 1439.9 500.42 1439.18 499.17V472.383H1414.8V470.465C1408.39 464.621 1401.46 459.057 1394.04 453.806V472.383H1380.06V444.518C1373.57 440.481 1366.64 436.537 1359.27 432.687V472.383H1345.35V425.769C1338.7 422.623 1331.74 419.52 1324.46 416.503V472.383H1310.6V410.964C1303.76 408.349 1296.79 405.835 1289.69 403.422V472.383H1275.89V398.918C1269 396.763 1262 394.608 1254.89 392.711V472.447H1241.15V407.883H1220.08V472.383H1206.44V425.575H1185.31V472.383H1171.7V443.29H1150.5V472.383H1136.99V461.004H1115.73V472.383H858.743V461.004H837.483V472.383H823.939V443.29H802.741V472.383H789.166V425.575H768.031V472.383H754.361V407.883H733.195V472.383H719.462V392.646C712.375 394.629 705.351 396.698 698.485 398.831V472.339H684.689V403.379C677.571 405.792 670.578 408.314 663.743 410.9V472.404H649.884V416.373C642.64 419.39 635.69 422.472 629.033 425.618V472.339H615.111V432.579C607.709 436.437 600.811 440.402 594.292 444.432V472.447H580.307V453.655C572.89 458.887 565.968 464.437 559.581 470.271V472.426H535.171V497.144H524.84V565.523C528.849 578.291 535.825 590.536 545.502 601.792V558.993H559.581V616.209C565.976 622.031 572.898 627.574 580.307 632.803V558.993H594.292V642.07C600.801 646.078 607.741 650.014 615.111 653.879V559.058H629.254V660.861C635.9 664.029 642.829 667.111 650.105 670.128V558.993H663.901V675.559C670.746 678.159 677.728 680.673 684.846 683.101V558.993H698.548V687.562C705.414 689.717 712.438 691.872 719.525 693.769V558.993H733.195V697.454C740.124 699.221 747.148 700.923 754.267 702.561V558.993H767.937V705.535C774.887 706.972 781.932 708.365 789.071 709.716V558.864H802.647V712.022C809.681 713.229 816.747 714.349 823.844 715.384V558.993H837.388V717.409C844.402 718.358 851.489 719.234 858.649 720.039V558.993H872.098V721.482C879.185 722.194 886.304 722.819 893.422 723.4V558.993H906.84V724.327C913.958 724.801 921.087 725.225 928.227 725.598V558.993H941.55V726.267C948.689 726.539 955.839 726.748 963 726.892V558.993H976.292V727.085C983.515 727.085 990.749 727.085 997.993 727.085V558.993H1011.25V726.892C1018.4 726.741 1025.55 726.547 1032.7 726.267V558.993H1046.03V725.663C1053.17 725.318 1060.31 724.895 1067.45 724.392V558.993H1080.83V723.379C1087.98 722.818 1095.07 722.172 1102.16 721.461V558.993H1115.64V720.017C1122.75 719.212 1129.84 718.336 1136.9 717.388V558.993H1150.41V715.491C1157.53 714.457 1164.61 713.336 1171.61 712.13V558.993H1185.21V709.716C1192.33 708.38 1199.36 706.979 1206.35 705.406V558.864H1219.99V702.389C1227.11 700.751 1234.13 699.049 1241.06 697.281V558.993H1254.79V693.726C1261.91 691.743 1268.91 689.674 1275.8 687.519V558.993H1289.6V683.037C1296.71 680.623 1303.69 678.109 1310.51 675.494V558.993H1324.37V669.999C1331.65 666.982 1338.57 663.878 1345.25 660.732V558.993H1359.17V653.814C1366.54 649.935 1373.47 645.985 1379.96 641.962V558.993H1393.95V632.717C1401.37 627.47 1408.31 621.906 1414.7 616.058V558.993H1428.75V601.49C1438.49 590.123 1445.47 577.751 1449.41 564.855V502.639L1441.26 502.575Z" fill="url(#paint6_linear_610_3524)"/>
<path d="M987.129 686.549C1244.27 686.549 1452.72 604.21 1452.72 502.639C1452.72 401.068 1244.27 318.729 987.129 318.729C729.989 318.729 521.535 401.068 521.535 502.639C521.535 604.21 729.989 686.549 987.129 686.549Z" fill="url(#paint7_linear_610_3524)"/>
<path opacity="0.3" d="M987.286 318.729C881.801 318.729 776.254 332.801 690.392 360.946L551.488 567.527C574.135 591.232 609.506 613.58 657.918 632.695C689.134 644.852 722.083 654.795 756.253 662.37L987.286 318.729Z" fill="#42E8E0"/>
<path opacity="0.3" d="M1117.75 326.099L878.777 681.528C936.519 686.903 994.942 687.972 1053.02 684.717L1273 357.519C1223.41 342.579 1171.24 332.021 1117.75 326.099Z" fill="#42E8E0"/>
<g opacity="0.05">
<path d="M987.129 665.516C1214.85 665.516 1399.46 592.593 1399.46 502.639C1399.46 412.684 1214.85 339.762 987.129 339.762C759.404 339.762 574.797 412.684 574.797 502.639C574.797 592.593 759.404 665.516 987.129 665.516Z" fill="url(#paint8_linear_610_3524)"/>
<path d="M250.593 501.949L246.184 500.204L964.513 216.451L968.922 218.197L250.593 501.949Z" fill="#42E8E0"/>
<path d="M263.253 506.949L258.844 505.203L977.173 221.451L981.583 223.196L263.253 506.949Z" fill="#42E8E0"/>
<path d="M275.917 511.949L271.508 510.203L989.837 226.451L994.215 228.196L275.917 511.949Z" fill="#42E8E0"/>
<path d="M288.546 516.948L284.168 515.203L1002.5 231.45L1006.88 233.196L288.546 516.948Z" fill="#42E8E0"/>
<path d="M301.21 521.948L296.801 520.202L1015.13 236.45L1019.54 238.195L301.21 521.948Z" fill="#42E8E0"/>
<path d="M313.871 526.948L309.461 525.202L1027.79 241.45L1032.2 243.195L313.871 526.948Z" fill="#42E8E0"/>
<path d="M326.535 531.947L322.125 530.202L1040.45 246.449L1044.86 248.195L326.535 531.947Z" fill="#42E8E0"/>
<path d="M339.195 536.947L334.785 535.201L1053.11 251.449L1057.49 253.194L339.195 536.947Z" fill="#42E8E0"/>
<path d="M351.827 541.947L347.449 540.201L1065.75 256.449L1070.16 258.194L351.827 541.947Z" fill="#42E8E0"/>
<path d="M364.488 546.925L360.078 545.201L1078.41 261.448L1082.82 263.194L364.488 546.925Z" fill="#42E8E0"/>
<path d="M377.148 551.946L372.738 550.2L1091.07 266.448L1095.48 268.193L377.148 551.946Z" fill="#42E8E0"/>
<path d="M389.812 556.946L385.402 555.2L1103.73 271.447L1108.14 273.193L389.812 556.946Z" fill="#42E8E0"/>
<path d="M402.472 561.924L398.062 560.2L1116.39 276.447L1120.77 278.193L402.472 561.924Z" fill="#42E8E0"/>
<path d="M415.105 566.923L410.727 565.199L1129.06 281.447L1133.43 283.192L415.105 566.923Z" fill="#42E8E0"/>
<path d="M427.765 571.923L423.355 570.199L1141.68 286.446L1146.09 288.17L427.765 571.923Z" fill="#42E8E0"/>
<path d="M440.429 576.923L436.02 575.199L1154.35 291.446L1158.76 293.17L440.429 576.923Z" fill="#42E8E0"/>
<path d="M453.089 581.922L448.68 580.198L1167.01 296.446L1171.42 298.17L453.089 581.922Z" fill="#42E8E0"/>
<path d="M465.753 586.922L461.344 585.198L1179.67 301.445L1184.05 303.169L465.753 586.922Z" fill="#42E8E0"/>
<path d="M478.382 591.922L474.004 590.198L1192.3 306.445L1196.71 308.169L478.382 591.922Z" fill="#42E8E0"/>
<path d="M491.042 596.921L486.633 595.198L1204.96 311.445L1209.37 313.169L491.042 596.921Z" fill="#42E8E0"/>
<path d="M503.707 601.921L499.297 600.197L1217.63 316.444L1222.04 318.168L503.707 601.921Z" fill="#42E8E0"/>
<path d="M516.367 606.921L511.957 605.197L1230.29 321.444L1234.7 323.168L516.367 606.921Z" fill="#42E8E0"/>
<path d="M529.031 611.921L524.621 610.197L1242.95 326.444L1247.33 328.168L529.031 611.921Z" fill="#42E8E0"/>
<path d="M541.659 616.92L537.281 615.196L1255.58 331.443L1259.99 333.167L541.659 616.92Z" fill="#42E8E0"/>
<path d="M554.324 621.92L549.914 620.196L1268.24 336.443L1272.65 338.167L554.324 621.92Z" fill="#42E8E0"/>
<path d="M566.984 626.92L562.574 625.195L1280.9 341.443L1285.31 343.167L566.984 626.92Z" fill="#42E8E0"/>
<path d="M579.648 631.919L575.238 630.195L1293.57 346.421L1297.98 348.166L579.648 631.919Z" fill="#42E8E0"/>
<path d="M592.308 636.919L587.898 635.195L1306.23 351.42L1310.61 353.166L592.308 636.919Z" fill="#42E8E0"/>
<path d="M604.941 641.919L600.562 640.173L1318.89 356.442L1323.27 358.166L604.941 641.919Z" fill="#42E8E0"/>
<path d="M617.601 646.918L613.191 645.173L1331.52 361.441L1335.93 363.165L617.601 646.918Z" fill="#42E8E0"/>
<path d="M630.261 651.918L625.852 650.172L1344.18 366.419L1348.59 368.165L630.261 651.918Z" fill="#42E8E0"/>
<path d="M642.925 656.918L638.516 655.172L1356.84 371.419L1361.25 373.165L642.925 656.918Z" fill="#42E8E0"/>
<path d="M655.585 661.917L651.176 660.172L1369.51 376.419L1373.88 378.165L655.585 661.917Z" fill="#42E8E0"/>
<path d="M668.218 666.917L663.84 665.171L1382.14 381.418L1386.55 383.164L668.218 666.917Z" fill="#42E8E0"/>
<path d="M680.878 671.917L676.469 670.171L1394.8 386.418L1399.21 388.164L680.878 671.917Z" fill="#42E8E0"/>
<path d="M693.542 676.916L689.133 675.171L1407.46 391.418L1411.87 393.164L693.542 676.916Z" fill="#42E8E0"/>
<path d="M706.203 681.916L701.793 680.17L1420.12 396.417L1424.53 398.163L706.203 681.916Z" fill="#42E8E0"/>
<path d="M718.867 686.916L714.457 685.17L1432.79 401.417L1437.16 403.163L718.867 686.916Z" fill="#42E8E0"/>
<path d="M731.495 691.915L727.117 690.17L1445.45 406.417L1449.82 408.163L731.495 691.915Z" fill="#42E8E0"/>
<path d="M744.156 696.915L739.746 695.169L1458.08 411.417L1462.48 413.162L744.156 696.915Z" fill="#42E8E0"/>
<path d="M756.82 701.915L752.41 700.169L1470.74 416.417L1475.15 418.162L756.82 701.915Z" fill="#42E8E0"/>
<path d="M769.48 706.914L765.07 705.169L1483.4 421.416L1487.81 423.162L769.48 706.914Z" fill="#42E8E0"/>
<path d="M782.144 711.914L777.734 710.168L1496.06 426.416L1500.44 428.161L782.144 711.914Z" fill="#42E8E0"/>
<path d="M794.773 716.914L790.395 715.168L1508.69 431.416L1513.1 433.161L794.773 716.914Z" fill="#42E8E0"/>
<path d="M807.437 721.913L803.027 720.168L1521.36 436.415L1525.77 438.161L807.437 721.913Z" fill="#42E8E0"/>
<path d="M820.097 726.913L815.688 725.167L1534.02 441.415L1538.43 443.16L820.097 726.913Z" fill="#42E8E0"/>
<path d="M832.761 731.912L828.352 730.167L1546.68 446.414L1551.09 448.16L832.761 731.912Z" fill="#42E8E0"/>
<path d="M845.421 736.912L841.012 735.167L1559.34 451.414L1563.72 453.16L845.421 736.912Z" fill="#42E8E0"/>
<path d="M858.05 741.912L853.672 740.166L1572 456.414L1576.38 458.159L858.05 741.912Z" fill="#42E8E0"/>
<path d="M870.714 746.911L866.305 745.166L1584.63 461.413L1589.04 463.159L870.714 746.911Z" fill="#42E8E0"/>
<path d="M883.375 751.911L878.965 750.166L1597.29 466.413L1601.7 468.159L883.375 751.911Z" fill="#42E8E0"/>
<path d="M896.039 756.911L891.629 755.165L1609.96 471.413L1614.37 473.158L896.039 756.911Z" fill="#42E8E0"/>
<path d="M908.699 761.91L904.289 760.165L1622.62 476.412L1627 478.158L908.699 761.91Z" fill="#42E8E0"/>
<path d="M921.331 766.91L916.953 765.165L1635.28 481.412L1639.66 483.158L921.331 766.91Z" fill="#42E8E0"/>
<path d="M933.992 771.91L929.582 770.164L1647.91 486.412L1652.32 488.157L933.992 771.91Z" fill="#42E8E0"/>
<path d="M946.656 776.909L942.246 775.164L1660.58 491.411L1664.98 493.157L946.656 776.909Z" fill="#42E8E0"/>
<path d="M959.316 781.888L954.906 780.164L1673.24 496.411L1677.65 498.157L959.316 781.888Z" fill="#42E8E0"/>
<path d="M971.976 786.887L967.566 785.163L1685.9 501.411L1690.27 503.156L971.976 786.887Z" fill="#42E8E0"/>
<path d="M984.609 791.887L980.23 790.163L1698.53 506.41L1702.94 508.134L984.609 791.887Z" fill="#42E8E0"/>
<path d="M997.269 796.908L992.859 795.163L1711.19 511.41L1715.6 513.156L997.269 796.908Z" fill="#42E8E0"/>
<path d="M1009.93 801.908L1005.52 800.162L1723.85 516.41L1728.26 518.155L1009.93 801.908Z" fill="#42E8E0"/>
</g>
<path d="M695.558 398.444C856.604 334.849 1117.62 334.849 1278.7 398.444C1355.68 428.851 1395.81 468.288 1399.21 508.113C1402.89 464.625 1362.73 420.662 1278.7 387.432C1117.65 323.837 856.635 323.837 695.558 387.432C611.523 420.641 571.395 464.603 575.08 508.113C578.45 468.288 618.609 428.851 695.558 398.444Z" fill="url(#paint9_linear_610_3524)"/>
<path d="M1885.84 0.237305H-4V970H1885.84V0.237305Z" fill="url(#paint10_radial_610_3524)"/>
<path style="mix-blend-mode:lighten" d="M1886 0.237305V970H-3.84375L608.245 293.343L1886 0.237305Z" fill="url(#paint11_radial_610_3524)"/>
<path opacity="0.1" d="M1874 1.03458L1776.67 39.4803L1679.31 1.03458L1681.27 0.237217C1678.88 0.467158 1676.47 0.467158 1674.08 0.237217L1676.1 1.03458L1578.8 39.4803L1481.48 1.03458L1483.46 0.237217C1482.9 0.0533274 1482.27 -0.0274412 1481.65 0.0027702C1481.03 0.0329816 1480.42 0.173144 1479.9 0.409619C1479.38 0.173223 1478.77 0.0332464 1478.14 0.00306314C1477.51 -0.0271201 1476.88 0.0534988 1476.31 0.237217L1478.3 1.03458L1380.97 39.4803L1283.61 1.03458L1285.6 0.237217C1285.03 0.0533274 1284.41 -0.0274412 1283.78 0.0027702C1283.16 0.0329816 1282.56 0.173144 1282.04 0.409619C1281.51 0.173223 1280.9 0.0332464 1280.27 0.00306314C1279.65 -0.0271201 1279.02 0.0534988 1278.45 0.237217L1280.46 1.03458L1183.1 39.4803L1085.78 1.03458L1087.76 0.237217C1087.2 0.0533274 1086.57 -0.0274412 1085.95 0.0027702C1085.32 0.0329816 1084.72 0.173144 1084.2 0.409619C1083.67 0.173223 1083.07 0.0332464 1082.44 0.00306314C1081.81 -0.0271201 1081.18 0.0534988 1080.61 0.237217L1082.6 1.03458L985.174 39.4803L887.91 1.03458L889.894 0.237217C887.533 0.467685 885.137 0.467685 882.776 0.237217L884.76 1.03458L787.402 39.4803L690.075 1.01303L692.059 0.237217C691.495 0.0533274 690.87 -0.0274412 690.247 0.0027702C689.623 0.0329816 689.021 0.173144 688.5 0.409619C687.973 0.173223 687.366 0.0332464 686.738 0.00306314C686.109 -0.0271201 685.479 0.0534988 684.909 0.237217L686.925 1.01303L589.567 39.4803L492.208 1.01303L494.193 0.237217C491.832 0.467685 489.435 0.467685 487.074 0.237217L489.059 1.01303L391.7 39.4803L294.373 1.01303L296.358 0.237217C295.794 0.0562063 295.172 -0.0248455 294.55 0.0015146C293.928 0.0278747 293.326 0.160801 292.799 0.388069C292.271 0.160801 291.669 0.0278747 291.047 0.0015146C290.425 -0.0248455 289.804 0.0562063 289.239 0.237217L291.224 1.01303L193.865 39.4803L96.5069 1.01303L98.4912 0.237217C97.927 0.0562063 97.3054 -0.0248455 96.6834 0.0015146C96.0615 0.0278747 95.4592 0.160801 94.932 0.388069C94.4048 0.160801 93.8025 0.0278747 93.1806 0.0015146C92.5586 -0.0248455 91.937 0.0562063 91.3728 0.237217L93.3572 1.01303L-3.84375 39.4156V40.7733L93.3572 79.1759L-3.84375 117.579V118.936L93.3572 157.339L-3.84375 195.72V197.078L93.3572 235.48L-3.84375 273.926V275.284L93.3572 313.686L-3.84375 352.046V353.382L93.3886 391.784L-3.84375 430.187V431.545L93.3886 470.034L-3.84375 508.35V509.708L93.3886 548.11L-3.84375 586.513V587.849L93.3886 626.252L-3.84375 664.654V666.012L93.3886 704.414L-3.84375 742.817V744.153L93.3886 782.513L-3.84375 820.98V822.316L93.3886 860.719L-3.84375 899.121V900.457L93.3886 938.882L14.5822 970C41.733 961.38 68.6002 949.915 94.9635 939.507C121.358 949.915 148.226 961.38 175.345 970L96.6014 938.882L193.96 900.414L291.318 938.882L212.449 970C239.568 961.38 266.435 949.915 292.83 939.507C319.193 949.915 346.061 961.38 373.18 970L294.436 938.882L391.763 900.414L489.122 938.882L410.378 970C437.497 961.38 464.365 949.915 490.728 939.507C517.123 949.915 543.99 961.38 571.109 970L492.366 938.882L589.724 900.414L687.083 938.882L608.15 970C635.27 961.38 662.137 949.915 688.532 939.507C714.895 949.915 741.762 961.38 768.881 970L690.138 938.882L787.465 900.414L884.823 938.882L806.08 970C833.199 961.38 860.066 949.915 886.43 939.507C912.73 949.915 939.629 961.38 966.716 970L887.973 938.882L985.174 900.436L1082.82 938.882L1004.07 970C1031.19 961.38 1058.06 949.915 1084.45 939.507C1110.6 949.915 1137.46 961.38 1164.71 970L1085.97 938.882L1183.29 900.436C1215.78 913.237 1248.23 926.052 1280.65 938.882L1201.91 970C1229.03 961.38 1255.89 949.915 1282.26 939.507C1308.62 949.915 1335.49 961.38 1362.61 970L1283.86 938.882L1381.22 900.436L1478.58 938.882L1399.84 970C1426.92 961.38 1453.79 949.915 1480.19 939.507C1506.3 949.915 1533.23 961.38 1560.28 970L1481.54 938.882L1578.87 900.436L1676.23 938.882L1597.48 970C1624.6 961.38 1651.47 949.915 1677.83 939.507C1704.2 949.915 1731.06 961.38 1758.18 970L1679.44 938.882L1776.8 900.436L1874.16 938.882L1795.29 970C1822.37 961.38 1849.24 949.915 1875.64 939.507L1886 943.601V942.351L1877.21 938.882L1886 935.52V934.27L1875.64 938.364L1778.28 899.811L1875.6 861.365L1886 865.46V864.21L1877.21 860.74L1886 857.249V855.999L1875.6 860.094L1778.28 821.626L1875.6 783.181L1886 787.275V786.025L1877.18 782.513L1886 779.043V777.793L1875.6 781.888L1778.28 743.507L1875.6 705.039L1886 709.242V707.992L1877.18 704.501L1886 701.031V699.781L1875.6 703.876L1778.28 665.43L1875.6 626.984L1886 631.079V629.829L1877.18 626.359L1886 622.868V621.618L1875.6 625.734L1778.25 587.267C1810.73 574.466 1843.18 561.651 1875.6 548.821L1886 552.916V551.688L1877.18 548.196L1886 544.705V543.305L1875.6 547.399L1778.25 509.04L1875.6 470.572L1886 474.688V473.438L1877.18 470.034L1886 466.564V465.314L1875.6 469.43L1778.25 430.963L1875.6 392.452L1886 396.547V395.319L1877.18 391.828L1886 388.336V387.086L1875.6 391.203L1778.25 352.757L1875.6 314.29L1886 318.406V317.156L1877.18 313.665L1886 310.195V308.945L1875.6 313.04L1778.25 274.572L1875.6 236.127L1886 240.221V238.971L1877.18 235.502L1886 232.011V230.825L1875.6 234.941L1778.25 196.345L1875.6 157.964L1886 162.08V160.83L1877.18 157.339L1886 153.848V152.598L1875.6 156.714L1778.25 118.268L1875.6 79.8009L1886 83.917V82.6671L1877.18 79.1759L1886 75.6632V74.4133L1875.6 78.5079C1843.12 65.707 1810.67 52.8918 1778.25 40.0621C1810.69 27.2756 1843.14 14.4748 1875.6 1.65954L1886 5.75409V4.54727L1877.18 1.03458L1879.16 0.237217C1878.6 0.0533274 1877.97 -0.0274412 1877.35 0.0027702C1876.73 0.0329816 1876.13 0.173144 1875.6 0.409619C1875.08 0.173223 1874.47 0.0332464 1873.84 0.00306314C1873.21 -0.0271201 1872.58 0.0534988 1872.01 0.237217L1874 1.03458ZM1629.07 20.8824L1677.74 1.65954L1775.1 40.1053L1677.74 78.551L1580.47 40.1053L1629.07 20.8824ZM638.262 450.638L686.925 470.034L589.567 508.415L492.24 470.034L589.567 431.588L638.262 450.638ZM591.016 430.79L688.5 392.452L785.858 430.92L688.5 469.365L591.016 430.79ZM639.711 489.709L688.374 470.486L785.732 508.932L688.374 547.399L591.142 509.018L639.711 489.709ZM738.644 489.084L690.075 470.034L787.433 431.588L884.792 470.034L787.433 508.501L738.644 489.084ZM788.882 430.898C821.325 418.069 853.777 405.253 886.241 392.452L983.567 430.898L886.241 469.344C853.84 456.529 821.43 443.706 789.008 430.877L788.882 430.898ZM837.546 489.817L886.241 470.594L983.567 509.061L886.241 547.507L788.882 509.04L837.546 489.817ZM936.479 489.192L887.941 470.034L985.174 431.502L1082.63 470.034L985.174 508.415L936.479 489.192ZM986.717 431.006L1084.2 392.452L1181.56 430.898L1084.2 469.344L986.717 431.006ZM1035.57 489.795L1084.23 470.572L1181.59 509.04L1084.23 547.485C1051.79 534.641 1019.33 521.826 986.843 509.04L1035.57 489.795ZM1134.47 489.17L1085.78 470.034L1183.13 431.588L1280.49 470.034L1183.13 508.501L1134.47 489.17ZM1233.4 489.795L1282.1 470.572L1379.43 509.04L1282.1 547.485L1184.71 509.04L1233.4 489.795ZM1233.4 450.099L1184.74 430.877L1282.04 392.452C1314.52 405.253 1346.97 418.069 1379.4 430.898L1282.07 469.344L1233.4 450.099ZM1233.4 371.958L1184.74 352.714L1282.07 314.268L1379.43 352.714L1282.07 391.181L1233.4 371.958ZM1231.83 372.583L1280.49 391.806L1183.17 430.252L1085.78 391.806L1183.13 353.339L1231.83 372.583ZM1132.9 371.958L1084.23 391.181L986.875 352.714L1084.23 314.268C1116.68 327.083 1149.13 339.898 1181.59 352.714L1132.9 371.958ZM1033.99 372.562L1082.66 391.806L985.174 430.252L887.847 391.806L985.174 353.339L1033.99 372.562ZM935.062 371.958L886.398 391.181L789.04 352.714L886.367 314.268L983.725 352.714L935.062 371.958ZM836.128 372.562L884.792 391.806L787.465 430.252L690.075 391.806L787.433 353.339L836.128 372.562ZM737.195 371.937L688.532 391.181L591.142 352.714L688.5 314.268L785.858 352.714L737.195 371.937ZM638.293 372.562L686.957 391.806L589.567 430.252L492.24 391.784L589.567 353.339L638.293 372.562ZM539.36 371.937L490.665 391.181L393.307 352.714L490.665 314.268L588.023 352.714L539.36 371.937ZM539.36 411.654L588.023 430.877L490.665 469.322L393.307 430.877L490.665 392.452L539.36 411.654ZM539.36 489.795L588.023 509.018L490.665 547.485L393.307 509.018L490.665 470.572L539.36 489.795ZM539.36 567.958L588.023 587.181L490.665 625.627L393.307 587.181C425.749 574.366 458.202 561.55 490.665 548.735L539.36 567.958ZM540.935 567.333L492.271 548.11L589.598 509.643L686.957 548.11L589.63 586.556L540.935 567.333ZM639.868 567.958L688.532 548.735L785.89 587.181L688.532 625.648L591.205 587.181L639.868 567.958ZM738.801 567.333L690.106 548.11L787.465 509.643L884.823 548.11L787.465 586.556L738.801 567.333ZM837.703 567.958L886.398 548.735L983.725 587.181L886.398 625.648L789.04 587.181L837.703 567.958ZM936.636 567.333L887.973 548.11L985.174 509.643L1082.53 548.11L985.174 586.556L936.636 567.333ZM1035.57 567.958L1084.23 548.735L1181.59 587.181L1084.23 625.648L986.906 587.181L1035.57 567.958ZM1134.5 567.333L1085.81 548.11L1183.17 509.643L1280.52 548.11L1183.17 586.556L1134.5 567.333ZM1233.4 567.958L1282.1 548.735L1379.43 587.181L1282.1 625.648L1184.74 587.181L1233.4 567.958ZM1332.34 567.333L1283.67 548.11L1381 509.664C1413.46 522.465 1445.92 535.281 1478.36 548.11C1445.92 560.94 1413.46 573.755 1381 586.556L1332.34 567.333ZM1332.34 489.192L1283.64 470.034L1380.97 431.588L1478.33 470.034L1380.97 508.501L1332.34 489.192ZM1332.34 411.029L1283.67 391.806L1381 353.339L1478.36 391.806L1381 430.252L1332.34 411.029ZM1332.34 332.866L1283.64 313.643L1381 275.197L1478.36 313.643L1381 352.11L1332.34 332.866ZM1330.76 293.795L1282.07 313.018L1184.74 274.572L1282.07 236.105L1379.43 274.572L1330.76 293.795ZM1231.83 294.42L1280.49 313.643L1183.17 352.089C1150.68 339.288 1118.23 326.473 1085.81 313.643C1118.25 300.813 1150.7 287.998 1183.17 275.197L1231.83 294.42ZM1132.9 293.795L1084.23 313.018L986.843 274.572L1084.2 236.105L1181.53 274.572L1132.9 293.795ZM1033.99 294.42L1082.66 313.643L985.174 352.089L887.815 313.643L985.174 275.197L1033.99 294.42ZM935.062 293.795L886.367 313.018L789.04 274.572L886.367 236.105L983.725 274.572L935.062 293.795ZM836.128 294.42L884.792 313.643L787.465 352.089C754.98 339.288 722.528 326.473 690.106 313.643C722.549 300.813 755.001 287.998 787.465 275.197L836.128 294.42ZM737.195 293.795L688.532 313.018L591.142 274.572L688.5 236.105L785.858 274.572L737.195 293.795ZM638.293 294.42L686.957 313.643L589.567 352.089L492.24 313.643L589.567 275.197L638.293 294.42ZM539.36 293.795L490.665 313.018L393.338 274.572L490.665 236.105L587.992 274.572L539.36 293.795ZM440.427 294.42L489.09 313.643L391.763 352.089L294.373 313.643L391.732 275.176L440.427 294.42ZM440.427 372.562L489.09 391.784L391.763 430.252L294.373 391.784L391.732 353.339L440.427 372.562ZM440.269 450.638L489.09 470.034L391.732 508.393L294.373 470.034L391.732 431.588L440.269 450.638ZM440.269 528.801L488.964 548.024L391.606 586.47C359.164 573.64 326.711 560.825 294.247 548.024L391.606 509.557L440.269 528.801ZM440.269 606.943L488.964 626.165L391.606 664.633L294.373 626.252C326.837 613.451 359.289 600.635 391.732 587.806L440.269 606.943ZM441.844 646.013L490.665 626.877L588.023 665.344L490.665 703.789L393.307 665.344L441.844 646.013ZM540.777 645.41L492.114 626.165L589.472 587.72L686.799 626.165L589.472 664.633L540.777 645.41ZM639.711 646.035L688.374 626.79L785.732 665.258L688.374 703.703L591.047 665.258L639.711 646.035ZM738.644 645.41L689.949 626.165C722.433 613.365 754.886 600.549 787.307 587.72L884.666 626.165L787.307 664.633L738.644 645.41ZM837.546 646.035L886.241 626.79L983.599 665.258L886.241 703.703L788.882 665.258L837.546 646.035ZM936.479 645.41L887.815 626.165L985.174 587.806L1082.5 626.273L985.174 664.719L936.479 645.41ZM1035.41 646.035L1084.08 626.79L1181.43 665.258L1084.08 703.703L986.749 665.258L1035.41 646.035ZM1134.35 645.41L1085.65 626.187L1183.01 587.72L1280.37 626.187C1247.88 638.988 1215.43 651.803 1183.01 664.633L1134.35 645.41ZM1233.25 646.035L1281.94 626.79L1379.3 665.258L1281.94 703.703L1184.58 665.258L1233.25 646.035ZM1332.18 645.41L1283.52 626.187L1380.84 587.72L1478.2 626.187L1380.88 664.633L1332.18 645.41ZM1431.11 646.035L1479.78 626.812L1577.32 665.344L1479.97 703.789L1382.64 665.344L1431.11 646.035ZM1431.11 606.318L1382.45 587.095L1479.78 548.649L1577.32 587.181L1479.97 625.648L1431.11 606.318ZM1431.11 528.176L1382.42 508.953L1479.78 470.486L1577.32 509.04L1479.97 547.485L1431.11 528.176ZM1431.11 450.013L1382.42 430.79L1479.9 392.452L1577.32 430.877L1479.97 469.322L1431.11 450.013ZM1431.11 371.872L1382.42 352.628L1479.78 314.182C1512.22 326.997 1544.67 339.812 1577.14 352.628L1479.78 391.095L1431.11 371.872ZM1431.11 293.709L1382.42 274.486L1479.78 236.019L1577.32 274.572L1480 313.018L1431.11 293.709ZM1431.11 215.546L1382.54 196.345L1479.9 157.899L1577.32 196.345L1480 234.812L1431.11 215.546ZM1429.54 216.171L1478.23 235.416L1380.97 273.926L1283.61 235.459C1316.1 222.658 1348.55 209.842 1380.97 197.013L1429.54 216.171ZM1330.64 215.546L1281.94 234.791L1184.71 196.345L1282.04 157.899L1379.4 196.345L1330.64 215.546ZM1231.7 216.171L1280.37 235.394L1183.13 273.926L1085.78 235.459L1183.1 197.013L1231.7 216.171ZM1132.87 215.74L1084.2 234.985L986.843 196.345L1084.2 157.899L1181.53 196.345L1132.87 215.74ZM1033.93 216.365L1082.63 235.588L985.174 273.926L887.815 235.459C920.3 222.658 952.753 209.842 985.174 197.013L1033.93 216.365ZM935.03 215.74L886.335 234.963L789.008 196.345L886.335 157.899C918.819 170.743 951.272 183.558 983.693 196.345L935.03 215.74ZM836.097 216.365L884.76 235.588L787.433 273.926L690.075 235.459L787.433 197.013L836.097 216.365ZM737.164 215.74L688.5 234.963L591.142 196.345L688.5 157.899L785.827 196.345L737.164 215.74ZM638.23 216.365L686.925 235.588L589.567 273.926L492.208 235.459L589.567 197.034L638.23 216.365ZM539.328 215.74L490.665 234.855L393.307 196.345L490.665 157.964C523.128 170.765 555.571 183.558 587.992 196.345L539.328 215.74ZM440.395 216.365L489.059 235.588L391.732 273.926L294.373 235.48L391.732 197.034L440.395 216.365ZM341.462 215.74L292.799 234.963L195.44 196.345L292.799 157.942L390.125 196.345L341.462 215.74ZM341.462 255.436L390.157 274.68C357.673 287.481 325.22 300.296 292.799 313.126L195.44 274.572L292.799 236.105L341.462 255.436ZM341.462 333.599L390.157 352.821L292.799 391.181L195.44 352.714L292.799 314.268L341.462 333.599ZM341.462 411.762L390.157 430.984L292.799 469.322L195.44 430.877L292.799 392.452L341.462 411.762ZM341.462 489.903L390.125 509.126L292.799 547.485L195.472 509.018L292.799 470.572L341.462 489.903ZM341.462 568.066L390.125 587.289C357.683 600.104 325.23 612.919 292.767 625.734L195.44 587.289L292.767 548.843L341.462 568.066ZM341.462 646.207L390.125 665.451L292.799 703.789L195.472 665.344L292.799 626.877L341.462 646.207ZM341.462 724.37L390.125 743.593L292.799 782.06L195.472 743.485L292.799 705.039L341.462 724.37ZM343.037 723.745L294.342 704.522L391.7 666.076L489.059 704.522L391.732 742.86L343.037 723.745ZM441.97 724.37L490.665 705.039L588.023 743.485L490.665 781.952L393.307 743.485L441.97 724.37ZM540.872 723.745L492.208 704.522C524.651 691.707 557.103 678.892 589.567 666.076L686.894 704.522L589.567 742.968L540.872 723.745ZM639.805 724.37L688.469 705.147L785.827 743.593L688.469 782.06L591.142 743.593L639.805 724.37ZM738.738 723.745L690.043 704.522L787.402 666.076L884.76 704.522L787.433 742.86L738.738 723.745ZM837.672 724.37L886.335 705.147C918.777 717.977 951.23 730.792 983.693 743.593L886.335 782.06L788.977 743.593L837.672 724.37ZM936.573 723.745L887.91 704.522C920.352 691.707 952.805 678.892 985.268 666.076L1082.6 704.522L985.174 742.86L936.573 723.745ZM1035.57 724.327L1084.23 705.104L1181.59 743.55L1084.23 782.017L986.906 743.55L1035.57 724.327ZM1134.5 723.702L1085.81 704.479L1183.17 666.033L1280.52 704.479L1183.17 742.946L1134.5 723.702ZM1233.44 724.327L1282.1 705.104C1314.54 717.934 1346.99 730.749 1379.46 743.55L1282.1 782.017L1184.74 743.55L1233.44 724.327ZM1332.34 723.702L1283.67 704.479L1381.03 666.033L1478.36 704.479L1381.03 742.946L1332.34 723.702ZM1431.27 724.327L1479.93 705.104L1577.32 743.507L1479.97 781.952L1382.64 743.485L1431.27 724.327ZM1530.2 723.702L1481.51 704.479L1578.87 666.033L1676.23 704.479L1578.87 742.946L1530.2 723.702ZM1530.2 645.561L1481.51 626.338L1578.87 587.87L1676.23 626.338C1643.76 639.139 1611.31 651.954 1578.87 664.783L1530.2 645.561ZM1530.2 567.398L1481.51 548.175L1578.87 509.729L1676.23 548.175L1578.87 586.621L1530.2 567.398ZM1530.2 489.256L1481.48 470.034L1578.84 431.588L1676.16 470.034L1578.84 508.501L1530.2 489.256ZM1530.2 411.093L1481.54 391.871L1578.9 353.403L1676.23 391.871L1578.9 430.316L1530.2 411.093ZM1530.2 332.931L1481.54 313.708L1578.9 275.262L1676.23 313.708L1578.9 352.175L1530.2 332.931ZM1530.2 254.789L1481.54 235.566L1578.87 197.099L1676.23 235.566L1578.84 273.926L1530.2 254.789ZM1530.2 176.626L1481.48 157.339L1578.8 118.872L1676.16 157.339C1643.72 170.154 1611.27 182.969 1578.8 195.785L1530.2 176.626ZM1528.63 137.556L1479.97 156.779L1382.54 118.268L1479.9 79.8009L1577.32 118.268L1528.63 137.556ZM1429.63 138.159L1478.33 157.382L1380.97 195.785L1283.61 157.339L1380.97 118.872L1429.63 138.159ZM1330.73 137.534L1282.04 156.757L1184.68 118.247C1217.14 105.446 1249.59 92.6305 1282.04 79.8009L1379.4 118.268L1330.73 137.534ZM1231.8 138.159L1280.46 157.382L1183.1 195.785L1085.78 157.339L1183.1 118.872L1231.8 138.159ZM1132.87 137.534L1084.2 156.757L986.843 118.247L1084.2 79.8009L1181.53 118.247L1132.87 137.534ZM1033.93 138.159L1082.63 157.382L985.174 195.785L887.91 157.339L985.174 118.872L1033.93 138.159ZM935.03 137.534L886.335 156.757L789.008 118.29L886.335 79.844L983.693 118.29L935.03 137.534ZM836.097 138.159L884.76 157.382L787.433 195.828L690.075 157.339L787.402 118.872L836.097 138.159ZM737.164 137.534L688.5 156.757L591.142 118.247L688.5 79.8009L785.827 118.247L737.164 137.534ZM638.23 138.159L686.925 157.403C654.441 170.204 621.988 183.02 589.567 195.849C557.229 182.991 524.777 170.154 492.208 157.339L589.567 118.872L638.23 138.159ZM539.328 137.556L490.665 156.714L393.338 118.247L490.665 79.8009L587.992 118.247L539.328 137.556ZM440.269 138.159L488.933 157.403L391.606 195.849L294.373 157.339L391.7 118.872L440.269 138.159ZM341.336 137.534L292.799 156.714L195.44 118.247L292.799 79.8009L390.125 118.247L341.336 137.534ZM242.529 138.159L291.224 157.339C258.76 170.14 226.308 182.955 193.865 195.785C161.423 182.969 128.97 170.154 96.5069 157.339L193.865 118.872L242.529 138.159ZM242.529 216.322L291.224 235.545L193.865 273.926L96.5069 235.48L193.865 197.034L242.529 216.322ZM242.529 294.485L291.192 313.708L193.865 352.089L96.5384 313.643L193.865 275.176L242.529 294.485ZM242.529 372.626L291.192 391.849L193.865 430.252L96.5384 391.784L193.865 353.339L242.529 372.626ZM242.529 450.789L291.224 470.034C258.781 482.849 226.329 495.664 193.865 508.479L96.5384 470.034L193.865 431.588L242.529 450.789ZM242.529 528.93L291.192 548.175L193.865 586.621L96.5384 548.11L193.865 509.643L242.529 528.93ZM242.529 607.093L291.192 626.316L193.865 664.783L96.5384 626.252L193.897 587.806L242.529 607.093ZM242.529 685.256L291.192 704.479L193.897 742.86L96.5384 704.414C128.981 691.599 161.433 678.784 193.897 665.969L242.529 685.256ZM242.529 763.398L291.224 782.513L193.897 820.958L96.5384 782.513L193.897 744.067L242.529 763.398ZM244.104 802.49L292.799 783.245L390.125 821.713L292.83 860.094L195.472 821.648L244.104 802.49ZM343.037 801.865L294.405 782.513L391.732 744.045L489.09 782.513L391.732 820.958L343.037 801.865ZM441.97 802.49L490.665 783.181L588.023 821.648L490.665 860.094L393.307 821.648L441.97 802.49ZM541.061 801.908L492.24 782.513L589.598 744.045L686.925 782.513L589.598 820.958L541.061 801.908ZM639.994 802.533L688.658 783.31C721.142 796.111 753.595 808.926 786.016 821.756L688.532 860.094C656.047 847.293 623.595 834.478 591.173 821.648L639.994 802.533ZM738.927 801.908L690.106 782.513L787.433 744.045L884.792 782.513L787.433 820.958L738.927 801.908ZM837.861 802.533L886.524 783.31L983.882 821.756L886.367 860.094L789.008 821.648L837.861 802.533ZM936.762 801.908L887.941 782.513L985.174 744.11L1082.63 782.513L985.174 821.023L936.762 801.908ZM1035.7 802.533L1084.36 783.31C1116.82 796.111 1149.28 808.926 1181.72 821.756L1084.23 860.094L986.875 821.626L1035.7 802.533ZM1134.47 801.908L1085.78 782.513L1183.13 744.045L1280.49 782.513L1183.13 820.958L1134.47 801.908ZM1233.4 802.533L1282.07 783.31L1379.43 821.756L1282.07 860.094L1184.71 821.626L1233.4 802.533ZM1332.31 801.908L1283.64 782.513L1381 744.045L1478.33 782.513L1381 820.958L1332.31 801.908ZM1431.24 802.533L1479.9 783.31L1577.32 821.648L1479.93 860.094L1382.58 821.626L1431.24 802.533ZM1530.08 801.908L1481.48 782.513L1578.84 744.045L1676.19 782.513L1578.84 820.958L1530.08 801.908ZM1629.01 802.533L1677.68 783.31L1775.03 821.756L1677.77 860.094L1580.47 821.648L1629.01 802.533ZM1629.01 762.837L1580.47 743.507L1677.83 705.039L1775.13 743.507C1742.66 756.307 1710.21 769.123 1677.77 781.952L1629.01 762.837ZM1629.01 684.674L1580.47 665.344L1677.83 626.898L1775.16 665.344L1677.83 703.789L1629.01 684.674ZM1629.01 606.533L1580.47 587.181L1677.83 548.735L1775.16 587.181L1677.83 625.648L1629.01 606.533ZM1629.01 528.37L1580.47 509.04L1677.83 470.572L1775.16 509.04L1677.83 547.485L1629.01 528.37ZM1629.01 450.207L1580.47 430.877L1677.74 392.452L1775.1 430.898L1677.77 469.344L1629.01 450.207ZM1629.01 372.066L1580.47 352.714L1677.8 314.268L1775.16 352.735L1677.8 391.181L1629.01 372.066ZM1629.01 293.903L1580.47 274.572L1677.8 236.127C1710.29 248.928 1742.74 261.743 1775.16 274.572L1677.8 313.018L1629.01 293.903ZM1629.01 215.74L1580.47 196.345L1677.8 157.899L1775.1 196.345L1677.74 234.812L1629.01 215.74ZM1629.01 137.599L1580.47 118.268L1677.83 79.8009L1775.19 118.268L1677.74 156.714L1629.01 137.599ZM1627.44 60.0177L1676.1 79.2406L1578.8 117.643L1481.48 79.1759L1578.8 40.7302L1627.44 60.0177ZM1431.21 20.8824L1479.9 1.65954L1577.32 40.1053L1480 78.551C1447.53 65.7501 1415.08 52.9349 1382.64 40.1053L1431.21 20.8824ZM1429.63 59.9531L1478.33 79.1759L1380.97 117.643L1283.61 79.1759L1380.97 40.7302L1429.63 59.9531ZM1233.37 20.8824L1282.04 1.65954L1379.4 40.1053L1282.04 78.551L1184.68 40.1053L1233.37 20.8824ZM1231.8 59.9531L1280.46 79.1759L1183.1 117.643L1085.78 79.1759L1183.1 40.7302L1231.8 59.9531ZM1035.57 20.8824L1084.2 1.63799L1181.53 40.1053L1084.2 78.551L986.843 40.1053L1035.57 20.8824ZM1033.99 59.9531L1082.69 79.1759L985.174 117.643L887.91 79.1759L985.174 40.7302L1033.99 59.9531ZM837.672 20.8824L886.335 1.63799L983.693 40.1053L886.335 78.551L788.977 40.1053L837.672 20.8824ZM836.097 59.9531L884.76 79.1759C852.318 91.9912 819.865 104.806 787.402 117.622L690.075 79.1759L787.402 40.7302L836.097 59.9531ZM639.805 20.8824L688.5 1.63799L785.827 40.1053L688.5 78.551L591.142 40.1053L639.805 20.8824ZM638.23 59.9531L686.925 79.1759L589.567 117.622L492.208 79.1759L589.567 40.7302L638.23 59.9531ZM441.97 20.8824L490.665 1.63799L587.992 40.1053L490.665 78.551L393.275 40.1053L441.97 20.8824ZM440.269 59.9531L488.933 79.1759C456.49 91.9912 424.08 104.806 391.7 117.622L294.373 79.1759L391.7 40.7302L440.269 59.9531ZM244.104 20.8608L292.799 1.63799L390.125 40.1053L292.799 78.551L195.44 40.1053L244.104 20.8608ZM242.529 59.9531L291.224 79.1759L193.865 117.622L96.5069 79.1759L193.865 40.7302L242.529 59.9531ZM46.2686 59.3281L-2.42637 40.1053L94.932 1.63799L192.29 40.1053L94.932 78.551L46.2686 59.3281ZM46.2686 137.469L-2.39487 118.247L94.932 79.8009L192.29 118.247L94.932 156.714L46.2686 137.469ZM46.2686 215.632L-2.39487 196.345L94.932 157.878L192.29 196.345L94.932 234.855L46.2686 215.632ZM46.2686 293.795L-2.39487 274.551L94.932 236.105L192.29 274.572L94.932 313.018L46.2686 293.795ZM46.2686 371.937L-2.39487 352.714L94.932 314.268C127.416 327.069 159.869 339.884 192.29 352.714L94.9635 391.159L46.2686 371.937ZM46.2686 450.099L-2.39487 430.877L94.9635 392.452L192.29 430.92L94.9635 469.365L46.2686 450.099ZM46.2686 528.241L-2.39487 509.018L94.9635 470.572L192.29 509.018L94.9635 547.485L46.2686 528.241ZM46.2686 606.404L-2.39487 587.181L94.9635 548.714L192.29 587.181L94.9635 625.627L46.2686 606.404ZM46.2686 684.567L-2.39487 665.344L94.9635 626.877L192.322 665.344C159.838 678.145 127.385 690.96 94.9635 703.789L46.2686 684.567ZM46.2686 762.708L-2.39487 743.485L94.9635 705.039L192.322 743.485L94.9635 781.952L46.2686 762.708ZM46.2686 840.871L-2.39487 821.648L94.9635 783.181L192.322 821.648L94.9635 860.094L46.2686 840.871ZM143.627 919.034L94.932 938.257L-2.36337 899.789L94.9635 861.344L192.322 899.789L143.627 919.034ZM145.17 879.942L96.5069 860.719L193.865 822.273L291.224 860.719L193.897 899.164L145.17 879.942ZM341.462 919.034L292.799 938.257L195.472 899.789L292.83 861.344L390.157 899.789L341.462 919.034ZM343.037 879.942L294.373 860.719L391.7 822.273L489.059 860.719L391.7 899.186L343.037 879.942ZM539.328 919.034L490.665 938.257L393.307 899.789C425.791 886.989 458.244 874.173 490.665 861.344L588.023 899.789L539.328 919.034ZM540.872 879.942L492.208 860.719L589.567 822.273L686.925 860.719L589.567 899.186L540.872 879.942ZM737.164 919.034L688.5 938.257L591.142 899.789L688.5 861.344L785.827 899.811L737.164 919.034ZM738.738 879.942L690.075 860.719L787.402 822.273L884.76 860.719L787.402 899.186L738.738 879.942ZM934.999 919.034L886.335 938.257C853.893 925.441 821.44 912.626 788.977 899.811L886.335 861.344L983.693 899.811L934.999 919.034ZM936.573 879.963L887.91 860.719L985.174 822.273L1082.5 860.719L985.174 899.186L936.573 879.963ZM1132.87 919.034L1084.2 938.257L986.843 899.811L1084.2 861.344L1181.53 899.811L1132.87 919.034ZM1134.44 879.963L1085.97 860.719L1183.29 822.273L1280.65 860.719L1183.29 899.186L1134.44 879.963ZM1330.7 919.034L1282.04 938.257L1184.68 899.811L1282.04 861.344L1379.4 899.811L1330.7 919.034ZM1332.28 879.963L1283.61 860.719L1380.97 822.273L1478.3 860.74L1380.97 899.186L1332.28 879.963ZM1528.57 919.034L1479.9 938.257L1382.54 899.811L1479.9 861.344L1577.32 899.811L1528.57 919.034ZM1530.14 879.963L1481.48 860.74L1578.8 822.273L1676.16 860.74L1578.8 899.186L1530.14 879.963ZM1726.4 919.034L1677.74 938.257L1580.47 899.811L1677.83 861.344L1775.19 899.811L1726.4 919.034ZM1825.33 841.453L1874 860.697L1776.67 899.143L1679.34 860.74L1776.7 822.273L1825.33 841.453ZM1825.33 763.311L1874.03 782.513L1776.7 820.958C1744.24 808.258 1711.79 795.443 1679.34 782.513C1711.79 769.697 1744.24 756.882 1776.7 744.067L1825.33 763.311ZM1825.33 685.148L1874 704.371L1776.67 742.839L1679.31 704.371L1776.64 665.926L1825.33 685.148ZM1825.33 606.986L1874 626.23L1776.64 664.676L1679.31 626.23L1776.64 587.763L1825.33 606.986ZM1825.33 528.844L1874 548.067C1841.56 560.897 1809.1 573.712 1776.64 586.513L1679.31 548.067L1776.64 509.621L1825.33 528.844ZM1825.33 450.681L1874.03 470.034L1776.67 508.501L1679.34 470.034L1776.67 431.588L1825.33 450.681ZM1825.33 372.54L1874 391.763L1776.64 430.209L1679.31 391.763L1776.64 353.296L1825.33 372.54ZM1825.33 294.377L1874.03 313.6L1776.67 352.067L1679.31 313.6L1776.67 275.154L1825.33 294.377ZM1825.33 216.214L1874.03 235.459C1841.55 248.259 1809.09 261.075 1776.67 273.904C1744.23 261.089 1711.78 248.274 1679.31 235.459L1776.67 196.991L1825.33 216.214ZM1825.33 138.073L1874.03 157.339L1776.67 195.785L1679.31 157.339L1776.67 118.893L1825.33 138.073ZM1825.33 59.91L1874.03 79.1328L1776.67 117.643L1679.31 79.1759L1776.67 40.7302L1825.33 59.91Z" fill="url(#paint12_radial_610_3524)"/>
<defs>
<linearGradient id="paint0_linear_610_3524" x1="1867" y1="951" x2="1867" y2="582" gradientUnits="userSpaceOnUse">
<stop stop-color="#F07217"/>
<stop offset="0.296875" stop-color="#C82222"/>
<stop offset="0.557292" stop-color="#259ABF"/>
<stop offset="0.770833" stop-color="#7B1FA7"/>
<stop offset="1" stop-color="#F37011"/>
</linearGradient>
<linearGradient id="paint1_linear_610_3524" x1="510.022" y1="411.95" x2="787.709" y2="1043.47" gradientUnits="userSpaceOnUse">
<stop stop-color="#42E8E0"/>
<stop offset="0.02" stop-color="#40DDDA"/>
<stop offset="0.09" stop-color="#3AAEC0"/>
<stop offset="0.17" stop-color="#3484A9"/>
<stop offset="0.26" stop-color="#2F6195"/>
<stop offset="0.35" stop-color="#2B4486"/>
<stop offset="0.44" stop-color="#282E79"/>
<stop offset="0.54" stop-color="#261E71"/>
<stop offset="0.66" stop-color="#24156C"/>
<stop offset="0.82" stop-color="#24126A"/>
</linearGradient>
<linearGradient id="paint2_linear_610_3524" x1="451.263" y1="558.993" x2="1373.19" y2="558.993" gradientUnits="userSpaceOnUse">
<stop stop-color="#42E8E0"/>
<stop offset="0.15" stop-color="#43E3E0"/>
<stop offset="0.33" stop-color="#45D5DF"/>
<stop offset="0.52" stop-color="#49BDDD"/>
<stop offset="0.72" stop-color="#4E9CDB"/>
<stop offset="0.93" stop-color="#5472D8"/>
<stop offset="1" stop-color="#5761D7"/>
</linearGradient>
<linearGradient id="paint3_linear_610_3524" x1="451.263" y1="558.993" x2="1373.19" y2="558.993" gradientUnits="userSpaceOnUse">
<stop stop-color="#42E8E0"/>
<stop offset="0.15" stop-color="#43E3E0"/>
<stop offset="0.33" stop-color="#45D5DF"/>
<stop offset="0.52" stop-color="#49BDDD"/>
<stop offset="0.72" stop-color="#4E9CDB"/>
<stop offset="0.93" stop-color="#5472D8"/>
<stop offset="1" stop-color="#5761D7"/>
</linearGradient>
<linearGradient id="paint4_linear_610_3524" x1="451.263" y1="558.993" x2="1373.19" y2="558.993" gradientUnits="userSpaceOnUse">
<stop stop-color="#42E8E0"/>
<stop offset="0.15" stop-color="#43E3E0"/>
<stop offset="0.33" stop-color="#45D5DF"/>
<stop offset="0.52" stop-color="#49BDDD"/>
<stop offset="0.72" stop-color="#4E9CDB"/>
<stop offset="0.93" stop-color="#5472D8"/>
<stop offset="1" stop-color="#5761D7"/>
</linearGradient>
<linearGradient id="paint5_linear_610_3524" x1="451.263" y1="543.24" x2="1373.19" y2="543.24" gradientUnits="userSpaceOnUse">
<stop stop-color="#42E8E0"/>
<stop offset="0.02" stop-color="#40DDDA"/>
<stop offset="0.09" stop-color="#3AAEC0"/>
<stop offset="0.17" stop-color="#3484A9"/>
<stop offset="0.26" stop-color="#2F6195"/>
<stop offset="0.35" stop-color="#2B4486"/>
<stop offset="0.44" stop-color="#282E79"/>
<stop offset="0.54" stop-color="#261E71"/>
<stop offset="0.66" stop-color="#24156C"/>
<stop offset="0.82" stop-color="#24126A"/>
</linearGradient>
<linearGradient id="paint6_linear_610_3524" x1="524.934" y1="559.92" x2="1449.51" y2="559.92" gradientUnits="userSpaceOnUse">
<stop stop-color="#42E8E0"/>
<stop offset="0.15" stop-color="#43E3E0"/>
<stop offset="0.33" stop-color="#45D5DF"/>
<stop offset="0.52" stop-color="#49BDDD"/>
<stop offset="0.72" stop-color="#4E9CDB"/>
<stop offset="0.93" stop-color="#5472D8"/>
<stop offset="1" stop-color="#5761D7"/>
</linearGradient>
<linearGradient id="paint7_linear_610_3524" x1="509.592" y1="335.461" x2="787.279" y2="966.981" gradientUnits="userSpaceOnUse">
<stop stop-color="#42E8E0"/>
<stop offset="0.02" stop-color="#40DDDA"/>
<stop offset="0.09" stop-color="#3AAEC0"/>
<stop offset="0.17" stop-color="#3484A9"/>
<stop offset="0.26" stop-color="#2F6195"/>
<stop offset="0.35" stop-color="#2B4486"/>
<stop offset="0.44" stop-color="#282E79"/>
<stop offset="0.54" stop-color="#261E71"/>
<stop offset="0.66" stop-color="#24156C"/>
<stop offset="0.82" stop-color="#24126A"/>
</linearGradient>
<linearGradient id="paint8_linear_610_3524" x1="914.307" y1="253.905" x2="1024.39" y2="1058.03" gradientUnits="userSpaceOnUse">
<stop stop-color="#42E8E0"/>
<stop offset="0.02" stop-color="#40DDDA"/>
<stop offset="0.09" stop-color="#3AAEC0"/>
<stop offset="0.17" stop-color="#3484A9"/>
<stop offset="0.26" stop-color="#2F6195"/>
<stop offset="0.35" stop-color="#2B4486"/>
<stop offset="0.44" stop-color="#282E79"/>
<stop offset="0.54" stop-color="#261E71"/>
<stop offset="0.66" stop-color="#24156C"/>
<stop offset="0.82" stop-color="#24126A"/>
</linearGradient>
<linearGradient id="paint9_linear_610_3524" x1="574.828" y1="423.959" x2="1399.43" y2="423.959" gradientUnits="userSpaceOnUse">
<stop stop-color="#2B237C"/>
<stop offset="1" stop-color="#180D5B"/>
</linearGradient>
<radialGradient id="paint10_radial_610_3524" cx="0" cy="0" r="1" gradientUnits="userSpaceOnUse" gradientTransform="translate(-166.148 -13.7488) scale(1855.64 1269.61)">
<stop offset="0.0241477" stop-color="#07203D"/>
<stop offset="0.49" stop-color="#13225A"/>
<stop offset="0.61" stop-color="#171549"/>
<stop offset="0.73" stop-color="#1B1150"/>
<stop offset="0.82" stop-color="#1D0F57"/>
</radialGradient>
<radialGradient id="paint11_radial_610_3524" cx="0" cy="0" r="1" gradientUnits="userSpaceOnUse" gradientTransform="translate(2383.18 1178.97) scale(1858.35 1271.47)">
<stop stop-color="#2F0B48"/>
<stop offset="0.06" stop-color="#290B43"/>
<stop offset="0.31" stop-color="#12042D"/>
<stop offset="0.6" stop-color="#180B43"/>
<stop offset="1" stop-color="#100732"/>
</radialGradient>
<radialGradient id="paint12_radial_610_3524" cx="0" cy="0" r="1" gradientUnits="userSpaceOnUse" gradientTransform="translate(-6.93046 2.90947) scale(2491.88 1704.93)">
<stop stop-color="#42E8E0"/>
<stop offset="0.48" stop-color="#42E8E0"/>
<stop offset="0.93" stop-color="#42E8E0"/>
<stop offset="1" stop-color="#42E8E0"/>
</radialGradient>
<clipPath id="clip0_610_3524">
<rect width="19.2593" height="40" fill="white" transform="translate(1806 795)"/>
</clipPath>
<clipPath id="clip1_610_3524">
<rect width="40" height="40" fill="white" transform="translate(1799 603)"/>
</clipPath>
</defs>
</svg>
