<svg width="288" height="463" viewBox="0 0 288 463" fill="none" xmlns="http://www.w3.org/2000/svg">
<path d="M143.74 323.057V251.889L79.7113 215.169L143.74 323.057ZM74.4609 204.22L143.74 243.966V87.4156L74.4609 204.22Z" fill="url(#paint0_linear_637_2755)"/>
<path d="M143.742 323.057L207.771 215.169L143.742 251.889V323.057ZM143.742 87.4156V243.966L213.021 204.22L143.742 87.4156Z" fill="url(#paint1_linear_637_2755)"/>
<path style="mix-blend-mode:color-dodge" d="M145.901 320.219C149.766 320.288 153.797 269.931 154.904 207.743C156.011 145.556 153.774 95.0869 149.909 95.0181C146.044 94.9493 142.013 145.307 140.906 207.494C139.799 269.682 142.035 320.15 145.901 320.219Z" fill="url(#paint2_radial_637_2755)"/>
<path style="mix-blend-mode:screen" d="M148.361 253.865C168.994 253.865 185.721 225.242 185.721 189.933C185.721 154.624 168.994 126 148.361 126C127.727 126 111 154.624 111 189.933C111 225.242 127.727 253.865 148.361 253.865Z" fill="url(#paint3_radial_637_2755)"/>
<path style="mix-blend-mode:screen" d="M144.5 320C148.09 320 151 303.882 151 284C151 264.118 148.09 248 144.5 248C140.91 248 138 264.118 138 284C138 303.882 140.91 320 144.5 320Z" fill="url(#paint4_radial_637_2755)"/>
<path style="mix-blend-mode:screen" d="M146.361 288.865C166.994 288.865 183.721 260.242 183.721 224.933C183.721 189.624 166.994 161 146.361 161C125.727 161 109 189.624 109 224.933C109 260.242 125.727 288.865 146.361 288.865Z" fill="url(#paint5_radial_637_2755)"/>
<path style="mix-blend-mode:color-dodge" d="M220.725 229.958C217.995 231.362 195.763 197.373 171.062 154.047C146.361 110.72 128.546 74.4546 131.276 73.0424C134.007 71.6303 156.231 105.627 180.931 148.954C205.632 192.28 223.448 228.546 220.725 229.958Z" fill="url(#paint6_radial_637_2755)"/>
<path style="mix-blend-mode:color-dodge" d="M140.98 320.452C139.051 319.25 153.201 292.163 172.579 259.949C191.957 227.735 202.143 214.495 204.077 215.694C206.012 216.893 198.943 232.074 179.564 264.288C160.186 296.502 142.912 321.646 140.98 320.452Z" fill="url(#paint7_radial_637_2755)"/>
<path style="mix-blend-mode:color-dodge" d="M145.805 326.976C143.912 328.055 127.471 303.869 109.077 272.958C90.6829 242.047 77.3029 216.11 79.1957 215.025C81.0886 213.94 97.525 238.132 115.919 269.043C134.313 299.954 147.693 325.891 145.805 326.976Z" fill="url(#paint8_radial_637_2755)"/>
<path style="mix-blend-mode:color-dodge" d="M67.2351 226.965C69.5712 228.145 88.5916 199.569 109.725 163.141C130.858 126.714 146.1 96.2229 143.764 95.0357C141.428 93.8484 122.414 122.432 101.281 158.859C80.1479 195.286 64.9058 225.777 67.2351 226.965Z" fill="url(#paint9_radial_637_2755)"/>
<defs>
<linearGradient id="paint0_linear_637_2755" x1="105.371" y1="123.128" x2="134.088" y2="297.974" gradientUnits="userSpaceOnUse">
<stop stop-color="#7F70D1"/>
<stop offset="1" stop-color="#402F9E"/>
</linearGradient>
<linearGradient id="paint1_linear_637_2755" x1="157.204" y1="329.62" x2="180.046" y2="131.339" gradientUnits="userSpaceOnUse">
<stop stop-color="#7760BD"/>
<stop offset="1" stop-color="#C17FFF"/>
</linearGradient>
<radialGradient id="paint2_radial_637_2755" cx="0" cy="0" r="1" gradientUnits="userSpaceOnUse" gradientTransform="translate(144.088 206.764) rotate(91.0197) scale(112.417 7.12519)">
<stop stop-color="white"/>
<stop offset="0.02" stop-color="#F7F7F7" stop-opacity="0.97"/>
<stop offset="0.13" stop-color="#BEBEBE" stop-opacity="0.74"/>
<stop offset="0.25" stop-color="#8B8B8B" stop-opacity="0.54"/>
<stop offset="0.37" stop-color="#606060" stop-opacity="0.38"/>
<stop offset="0.49" stop-color="#3D3D3D" stop-opacity="0.24"/>
<stop offset="0.62" stop-color="#222222" stop-opacity="0.14"/>
<stop offset="0.74" stop-color="#0F0F0F" stop-opacity="0.06"/>
<stop offset="0.87" stop-color="#040404" stop-opacity="0.01"/>
<stop offset="1" stop-opacity="0"/>
</radialGradient>
<radialGradient id="paint3_radial_637_2755" cx="0" cy="0" r="1" gradientUnits="userSpaceOnUse" gradientTransform="translate(145.713 188.4) rotate(90) scale(63.5504 37.5525)">
<stop stop-color="#D065D6"/>
<stop offset="0.34" stop-color="#803E84" stop-opacity="0.62"/>
<stop offset="0.66" stop-color="#3B1D3D" stop-opacity="0.28"/>
<stop offset="0.88" stop-color="#100811" stop-opacity="0.08"/>
<stop offset="1" stop-opacity="0"/>
</radialGradient>
<radialGradient id="paint4_radial_637_2755" cx="0" cy="0" r="1" gradientUnits="userSpaceOnUse" gradientTransform="translate(144.039 283.137) rotate(90) scale(35.7848 6.53336)">
<stop stop-color="#D065D6"/>
<stop offset="0.34" stop-color="#803E84" stop-opacity="0.62"/>
<stop offset="0.66" stop-color="#3B1D3D" stop-opacity="0.28"/>
<stop offset="0.88" stop-color="#100811" stop-opacity="0.08"/>
<stop offset="1" stop-opacity="0"/>
</radialGradient>
<radialGradient id="paint5_radial_637_2755" cx="0" cy="0" r="1" gradientUnits="userSpaceOnUse" gradientTransform="translate(143.713 222.729) rotate(90) scale(63.5504 37.5525)">
<stop stop-color="#D065D6"/>
<stop offset="0.34" stop-color="#803E84" stop-opacity="0.62"/>
<stop offset="0.66" stop-color="#3B1D3D" stop-opacity="0.28"/>
<stop offset="0.88" stop-color="#100811" stop-opacity="0.08"/>
<stop offset="1" stop-opacity="0"/>
</radialGradient>
<radialGradient id="paint6_radial_637_2755" cx="0" cy="0" r="1" gradientUnits="userSpaceOnUse" gradientTransform="translate(180.627 152.905) rotate(60.2783) scale(90.7334 5.43605)">
<stop stop-color="white"/>
<stop offset="0.02" stop-color="#F7F7F7" stop-opacity="0.97"/>
<stop offset="0.13" stop-color="#BEBEBE" stop-opacity="0.74"/>
<stop offset="0.25" stop-color="#8B8B8B" stop-opacity="0.54"/>
<stop offset="0.37" stop-color="#606060" stop-opacity="0.38"/>
<stop offset="0.49" stop-color="#3D3D3D" stop-opacity="0.24"/>
<stop offset="0.62" stop-color="#222222" stop-opacity="0.14"/>
<stop offset="0.74" stop-color="#0F0F0F" stop-opacity="0.06"/>
<stop offset="0.87" stop-color="#040404" stop-opacity="0.01"/>
<stop offset="1" stop-opacity="0"/>
</radialGradient>
<radialGradient id="paint7_radial_637_2755" cx="0" cy="0" r="1" gradientUnits="userSpaceOnUse" gradientTransform="translate(176.854 265.599) rotate(120.996) scale(68.3918 4.0281)">
<stop stop-color="white"/>
<stop offset="0.02" stop-color="#F7F7F7" stop-opacity="0.97"/>
<stop offset="0.13" stop-color="#BEBEBE" stop-opacity="0.74"/>
<stop offset="0.25" stop-color="#8B8B8B" stop-opacity="0.54"/>
<stop offset="0.37" stop-color="#606060" stop-opacity="0.38"/>
<stop offset="0.49" stop-color="#3D3D3D" stop-opacity="0.24"/>
<stop offset="0.62" stop-color="#222222" stop-opacity="0.14"/>
<stop offset="0.74" stop-color="#0F0F0F" stop-opacity="0.06"/>
<stop offset="0.87" stop-color="#040404" stop-opacity="0.01"/>
<stop offset="1" stop-opacity="0"/>
</radialGradient>
<radialGradient id="paint8_radial_637_2755" cx="0" cy="0" r="1" gradientUnits="userSpaceOnUse" gradientTransform="translate(115.793 271.919) rotate(59.2117) scale(65.4385 3.86119)">
<stop stop-color="white"/>
<stop offset="0.02" stop-color="#F7F7F7" stop-opacity="0.97"/>
<stop offset="0.13" stop-color="#BEBEBE" stop-opacity="0.74"/>
<stop offset="0.25" stop-color="#8B8B8B" stop-opacity="0.54"/>
<stop offset="0.37" stop-color="#606060" stop-opacity="0.38"/>
<stop offset="0.49" stop-color="#3D3D3D" stop-opacity="0.24"/>
<stop offset="0.62" stop-color="#222222" stop-opacity="0.14"/>
<stop offset="0.74" stop-color="#0F0F0F" stop-opacity="0.06"/>
<stop offset="0.87" stop-color="#040404" stop-opacity="0.01"/>
<stop offset="1" stop-opacity="0"/>
</radialGradient>
<radialGradient id="paint9_radial_637_2755" cx="0" cy="0" r="1" gradientUnits="userSpaceOnUse" gradientTransform="translate(101.542 162.182) rotate(120.154) scale(76.6175 4.63068)">
<stop stop-color="white"/>
<stop offset="0.02" stop-color="#F7F7F7" stop-opacity="0.97"/>
<stop offset="0.13" stop-color="#BEBEBE" stop-opacity="0.74"/>
<stop offset="0.25" stop-color="#8B8B8B" stop-opacity="0.54"/>
<stop offset="0.37" stop-color="#606060" stop-opacity="0.38"/>
<stop offset="0.49" stop-color="#3D3D3D" stop-opacity="0.24"/>
<stop offset="0.62" stop-color="#222222" stop-opacity="0.14"/>
<stop offset="0.74" stop-color="#0F0F0F" stop-opacity="0.06"/>
<stop offset="0.87" stop-color="#040404" stop-opacity="0.01"/>
<stop offset="1" stop-opacity="0"/>
</radialGradient>
</defs>
</svg>
